<?xml version="1.0" encoding="utf-8"?>
<!-- Generator: Adobe Illustrator 18.0.0, SVG Export Plug-In . SVG Version: 6.00 Build 0)  -->
<!DOCTYPE svg PUBLIC "-//W3C//DTD SVG 1.1//EN" "http://www.w3.org/Graphics/SVG/1.1/DTD/svg11.dtd">
<svg version="1.1" id="Layer_1" xmlns="http://www.w3.org/2000/svg" xmlns:xlink="http://www.w3.org/1999/xlink" x="0px" y="0px"
	 viewBox="0 0 50 50" enable-background="new 0 0 50 50" xml:space="preserve">
<path fill="#D3D3D3" d="M25,50C11.2,50,0,38.8,0,25S11.2,0,25,0s25,11.2,25,25S38.8,50,25,50z M32.1,14.5c-7.1,4.6-21.8,6.1-28.5,6
	c-0.3,1.5-0.5,3-0.5,4.5c0,12.1,9.8,21.9,21.9,21.9S46.9,37.1,46.9,25c0-1.6-0.2-3.2-0.5-4.7C40.8,19.5,33.8,17,32.1,14.5z M15,27.7
	c0-1.3-1.1-2.4-2.4-2.4s-2.4,1.1-2.4,2.4c0,1.3,1.1,2.4,2.4,2.4S15,29,15,27.7z M39.9,27.7c0-1.3-1.1-2.4-2.4-2.4
	c-1.3,0-2.4,1.1-2.4,2.4c0,1.3,1.1,2.4,2.4,2.4C38.8,30.1,39.9,29,39.9,27.7z M25,35.9c1.9,0,3.5-1.6,3.5-3.5h-6.9
	C21.5,34.3,23.1,35.9,25,35.9z"/>
</svg>
